<svg width="60" height="60" viewBox="0 0 60 60" fill="none" xmlns="http://www.w3.org/2000/svg">
<rect width="60" height="60" rx="30" fill="#2B2F44"/>
<path d="M30 16.3391C28.1615 16.3391 26.341 16.7012 24.6424 17.4048C22.9439 18.1084 21.4005 19.1396 20.1005 20.4396C17.475 23.0651 16 26.6261 16 30.3391C16 36.5271 20.018 41.7771 25.576 43.6391C26.276 43.7511 26.5 43.3171 26.5 42.9391V40.5731C22.622 41.4131 21.796 38.6971 21.796 38.6971C21.152 37.0731 20.242 36.6391 20.242 36.6391C18.968 35.7711 20.34 35.7991 20.34 35.7991C21.74 35.8971 22.482 37.2411 22.482 37.2411C23.7 39.3691 25.758 38.7391 26.556 38.4031C26.682 37.4931 27.046 36.8771 27.438 36.5271C24.33 36.1771 21.068 34.9731 21.068 29.6391C21.068 28.0851 21.6 26.8391 22.51 25.8451C22.37 25.4951 21.88 24.0391 22.65 22.1491C22.65 22.1491 23.826 21.7711 26.5 23.5771C27.606 23.2691 28.81 23.1151 30 23.1151C31.19 23.1151 32.394 23.2691 33.5 23.5771C36.174 21.7711 37.35 22.1491 37.35 22.1491C38.12 24.0391 37.63 25.4951 37.49 25.8451C38.4 26.8391 38.932 28.0851 38.932 29.6391C38.932 34.9871 35.656 36.1631 32.534 36.5131C33.038 36.9471 33.5 37.8011 33.5 39.1031V42.9391C33.5 43.3171 33.724 43.7651 34.438 43.6391C39.996 41.7631 44 36.5271 44 30.3391C44 28.5006 43.6379 26.6801 42.9343 24.9815C42.2307 23.283 41.1995 21.7396 39.8995 20.4396C38.5995 19.1396 37.0561 18.1084 35.3576 17.4048C33.659 16.7012 31.8385 16.3391 30 16.3391Z" fill="#797B88"/>
</svg>
