<svg width="60" height="60" viewBox="0 0 60 60" fill="none" xmlns="http://www.w3.org/2000/svg">
<rect width="60" height="60" rx="30" fill="#2B2F44"/>
<path d="M22.2682 44.0005H16.463V25.3058H22.2682V44.0005ZM19.3621 22.7558C17.5061 22.7558 16 21.2177 16 19.3616C16 18.4699 16.3542 17.6148 16.9847 16.9843C17.6153 16.3537 18.4704 15.9995 19.3621 15.9995C20.2538 15.9995 21.109 16.3537 21.7395 16.9843C22.37 17.6148 22.7242 18.4699 22.7242 19.3616C22.7242 21.2177 21.2182 22.7558 19.3621 22.7558ZM43.995 44.0005H38.2028V34.9002C38.2028 32.7311 38.1588 29.95 35.1847 29.95C32.1666 29.95 31.7036 32.3061 31.7036 34.7442V44.0005H25.9044V25.3058H31.4716V27.8559H31.5526C32.3276 26.3869 34.2207 24.8368 37.0448 24.8368C42.92 24.8368 44 28.706 44 33.7311V44.0005H43.995Z" fill="#797B88"/>
</svg>
