<svg width="60" height="60" viewBox="0 0 60 60" fill="none" xmlns="http://www.w3.org/2000/svg">
<rect width="60" height="60" rx="30" fill="#2B2F44"/>
<path d="M44 21.3002C42.9694 21.7686 41.8585 22.0764 40.7075 22.2237C41.8853 21.5143 42.7954 20.39 43.2237 19.0382C42.1128 19.7074 40.8815 20.1759 39.5832 20.4436C38.5258 19.2925 37.0402 18.6233 35.3537 18.6233C32.2084 18.6233 29.6386 21.1931 29.6386 24.3652C29.6386 24.8202 29.6922 25.2619 29.7859 25.6768C25.021 25.4359 20.7782 23.1472 17.9541 19.6807C17.4589 20.5239 17.1778 21.5143 17.1778 22.5583C17.1778 24.5525 18.1816 26.3193 19.7342 27.3231C18.7839 27.3231 17.9006 27.0554 17.1243 26.6539V26.694C17.1243 29.478 19.1052 31.8068 21.7285 32.3288C20.8863 32.5593 20.002 32.5914 19.1453 32.4225C19.5088 33.5635 20.2208 34.5619 21.1811 35.2773C22.1414 35.9927 23.3017 36.3892 24.499 36.4111C22.4695 38.0178 19.9537 38.8862 17.3652 38.8738C16.9101 38.8738 16.4551 38.847 16 38.7935C18.543 40.4264 21.5679 41.3766 24.8069 41.3766C35.3537 41.3766 41.1491 32.6233 41.1491 25.0344C41.1491 24.7801 41.1491 24.5392 41.1358 24.2849C42.26 23.4818 43.2237 22.4646 44 21.3002Z" fill="#797B88"/>
</svg>
